<?xml version="1.0" encoding="utf-8"?>
<!-- Generator: Adobe Illustrator 21.0.0, SVG Export Plug-In . SVG Version: 6.00 Build 0)  -->
<svg version="1.1" id="Capa_1" xmlns="http://www.w3.org/2000/svg" xmlns:xlink="http://www.w3.org/1999/xlink" x="0px" y="0px"
	 viewBox="0 0 30 12" style="enable-background:new 0 0 30 12;" xml:space="preserve">
<style type="text/css">
	.st0{fill:#87D8C9;}
</style>
<g>
	<polygon class="st0" points="11.1,3.5 12.2,0.3 11.4,0.4 10.5,1.4 	"/>
	<polygon class="st0" points="15.4,2.6 13.6,0.4 12.5,0.3 11.3,3.7 	"/>
	<polygon class="st0" points="15.6,0.9 14,0.5 15.5,2.3 	"/>
	<polygon class="st0" points="8.6,8.1 6.6,6.4 6.7,8.1 7,10 7.2,10 	"/>
	<polygon class="st0" points="11,0.5 10.2,0.7 9.2,1.3 10.3,1.3 	"/>
	<polygon class="st0" points="6.1,5.3 5.6,6.8 5.6,7.2 6.3,6.1 	"/>
	<polygon class="st0" points="17.2,1.3 15.8,0.9 15.7,2.5 18.5,2.9 	"/>
	<polygon class="st0" points="6.1,6.8 6.4,7.5 6.4,6.4 	"/>
	<polygon class="st0" points="6.7,3.8 6.2,5 6.4,5.7 7.1,3.3 	"/>
	<polygon class="st0" points="9,4.8 7.8,2.4 7.5,2.7 6.6,5.9 	"/>
	<polygon class="st0" points="10.2,1.5 8.8,1.5 8.3,1.9 10.9,3.6 	"/>
	<polygon class="st0" points="10.9,3.9 8.1,2 8,2.2 9.2,4.7 	"/>
	<polygon class="st0" points="18.4,3.1 15.7,2.8 14,6.2 	"/>
	<polygon class="st0" points="9.2,4.9 8.9,7.5 10.8,4.1 	"/>
	<polygon class="st0" points="8.7,7.9 9,5 6.7,6.1 	"/>
	<polygon class="st0" points="21.3,3.1 21.3,2.9 20,2.4 19.1,2.9 	"/>
	<polygon class="st0" points="11.1,4.1 9,7.9 13.5,6.5 	"/>
	<polygon class="st0" points="19.8,2.3 17.6,1.4 18.7,2.9 	"/>
	<polygon class="st0" points="13.1,6.8 9.2,8.1 11.1,8.4 	"/>
	<polygon class="st0" points="12.5,10.1 16.7,9.3 11.4,8.7 	"/>
	<polygon class="st0" points="18.6,3.3 13.9,6.5 17.5,9.1 	"/>
	<polygon class="st0" points="15.4,2.8 11.3,3.9 13.7,6.3 	"/>
	<polygon class="st0" points="18.7,3.7 17.7,9.1 19.5,8.6 	"/>
	<polygon class="st0" points="13.7,6.7 11.4,8.5 17.1,9.1 	"/>
	<path class="st0" d="M24.2,5.1C24.2,5.1,24.2,5.1,24.2,5.1L24,4.7l-0.2,1.4l1.1,0.1L24.2,5.1z"/>
	<path class="st0" d="M22.8,3.2C22.8,3.2,22.8,3.1,22.8,3.2l-0.2-0.7l-0.6-0.2l-0.5,0.5l0,0.2L22.8,3.2z"/>
	<polygon class="st0" points="21.6,6.9 23.5,3.8 23.1,3.4 21.5,3.3 	"/>
	<path class="st0" d="M23.5,7.9l0.1-1.7c0,0,0,0,0,0c0,0,0,0,0,0l0.2-1.9l-0.1-0.3l-2,3.1L23.5,7.9z M23.3,5c0.1,0,0.1,0.1,0.1,0.1
		v0.6c0,0.1-0.1,0.1-0.1,0.1s-0.1-0.1-0.1-0.1V5.2C23.2,5.1,23.3,5,23.3,5z"/>
	<polygon class="st0" points="18.9,3.1 21.4,6.8 21.3,3.3 	"/>
	<polygon class="st0" points="23.7,7.8 24.9,6.4 23.8,6.4 	"/>
	<polygon class="st0" points="25.1,9.3 25.7,8.7 25.8,7.9 25.5,7.1 	"/>
	<polygon class="st0" points="21.2,9.1 21.4,7.5 20.4,8.3 	"/>
	<polygon class="st0" points="25.2,6.5 23.7,8.1 24.2,9.9 24.8,9.6 25.3,6.8 	"/>
	<polygon class="st0" points="22.5,10.1 23.2,10.2 24,10 23.5,8.4 	"/>
	<polygon class="st0" points="21.6,7.4 21.4,9.3 22.3,10 23.4,8.2 	"/>
	<polygon class="st0" points="18.9,11.6 19.9,11.6 20.2,8.4 19.7,8.8 	"/>
	<polygon class="st0" points="11.1,8.7 9.9,10.2 11.1,10.8 12.2,10.2 	"/>
	<polygon class="st0" points="11.5,10.8 13.1,11 12.4,10.3 	"/>
	<polygon class="st0" points="18.9,3.5 19.7,8.5 21.3,7.2 	"/>
	<polygon class="st0" points="8.9,8.2 8.7,11.4 10.9,8.6 	"/>
	<polygon class="st0" points="8.4,11.4 8.6,8.5 7.4,10.2 	"/>
	<polygon class="st0" points="8.8,11.6 9.9,11.6 10.1,10.6 9.7,10.4 	"/>
	<polygon class="st0" points="12.7,10.3 13.4,11 16.9,10.4 17.3,9.4 	"/>
	<polygon class="st0" points="7,10.3 7.1,11.6 8.3,11.6 7.2,10.3 	"/>
	<polygon class="st0" points="17.7,9.3 17.9,11.6 18.2,11.6 18.6,11.6 19.4,8.9 	"/>
	<polygon class="st0" points="17.1,10.5 17.2,11.6 17.7,11.6 17.5,9.7 	"/>
</g>
</svg>
