<?xml version="1.0" encoding="utf-8"?>
<!-- Generator: Adobe Illustrator 21.0.0, SVG Export Plug-In . SVG Version: 6.00 Build 0)  -->
<svg version="1.1" id="Capa_1" xmlns="http://www.w3.org/2000/svg" xmlns:xlink="http://www.w3.org/1999/xlink" x="0px" y="0px"
	 viewBox="0 0 120 12" style="enable-background:new 0 0 120 12;" xml:space="preserve">
<style type="text/css">
	.st0{fill:#FFFFFF;}
</style>
<g>
	<polygon class="st0" points="8.8,3.6 9.9,0.4 9.1,0.5 8.2,1.5 	"/>
	<polygon class="st0" points="13,2.7 11.2,0.5 10.2,0.4 9,3.7 	"/>
	<polygon class="st0" points="13.2,1 11.6,0.6 13.1,2.4 	"/>
	<polygon class="st0" points="6.3,8.1 4.3,6.4 4.4,8.1 4.7,10 4.9,10 	"/>
	<polygon class="st0" points="8.7,0.6 7.9,0.8 6.9,1.4 8,1.4 	"/>
	<polygon class="st0" points="3.8,5.3 3.3,6.8 3.3,7.2 4,6.1 	"/>
	<polygon class="st0" points="14.8,1.4 13.4,1 13.3,2.6 16.1,3 	"/>
	<polygon class="st0" points="3.8,6.8 4.1,7.5 4.1,6.4 	"/>
	<polygon class="st0" points="4.4,3.8 3.9,5 4.1,5.7 4.8,3.4 	"/>
	<polygon class="st0" points="6.7,4.8 5.5,2.5 5.2,2.8 4.3,5.9 	"/>
	<polygon class="st0" points="7.9,1.6 6.5,1.6 6,2 8.6,3.6 	"/>
	<polygon class="st0" points="8.6,3.9 5.8,2.1 5.7,2.3 6.9,4.7 	"/>
	<polygon class="st0" points="16,3.2 13.3,2.9 11.6,6.2 	"/>
	<polygon class="st0" points="6.9,4.9 6.6,7.5 8.5,4.1 	"/>
	<polygon class="st0" points="6.4,7.9 6.7,5 4.4,6.1 	"/>
	<polygon class="st0" points="18.9,3.2 18.9,3 17.6,2.5 16.7,3 	"/>
	<polygon class="st0" points="8.8,4.1 6.7,7.9 11.1,6.5 	"/>
	<polygon class="st0" points="17.4,2.4 15.2,1.5 16.3,3 	"/>
	<polygon class="st0" points="10.8,6.8 6.9,8.1 8.8,8.4 	"/>
	<polygon class="st0" points="10.2,10.1 14.3,9.3 9.1,8.7 	"/>
	<polygon class="st0" points="16.2,3.4 11.5,6.5 15.1,9.1 	"/>
	<polygon class="st0" points="13,2.9 9,3.9 11.3,6.3 	"/>
	<polygon class="st0" points="16.3,3.7 15.3,9.1 17.1,8.6 	"/>
	<polygon class="st0" points="11.3,6.7 9.1,8.5 14.7,9.1 	"/>
	<path class="st0" d="M21.7,5.1L21.7,5.1l-0.2-0.4l-0.2,1.4l1.1,0.1L21.7,5.1z"/>
	<path class="st0" d="M20.3,3.3C20.3,3.3,20.3,3.2,20.3,3.3l-0.2-0.7l-0.6-0.2L19,2.9v0.2L20.3,3.3z"/>
	<polygon class="st0" points="19.2,6.9 21,3.8 20.6,3.5 19.1,3.4 	"/>
	<path class="st0" d="M21,7.9l0.1-1.7l0,0l0,0l0.2-1.9L21.2,4l-2,3.1L21,7.9z M20.8,5C20.9,5,20.9,5.1,20.8,5l0.1,0.7
		c0,0.1-0.1,0.1-0.1,0.1l-0.1-0.1V5.2C20.7,5.1,20.8,5,20.8,5z"/>
	<polygon class="st0" points="16.5,3.2 19,6.8 18.9,3.4 	"/>
	<polygon class="st0" points="21.2,7.8 22.4,6.4 21.3,6.4 	"/>
	<polygon class="st0" points="22.6,9.3 23.2,8.7 23.3,7.9 23,7.1 	"/>
	<polygon class="st0" points="18.8,9.1 19,7.5 18,8.3 	"/>
	<polygon class="st0" points="22.7,6.5 21.2,8.1 21.7,9.9 22.3,9.6 22.8,6.8 	"/>
	<polygon class="st0" points="20,10.1 20.7,10.2 21.5,10 21,8.4 	"/>
	<polygon class="st0" points="19.2,7.4 19,9.3 19.9,10 20.9,8.2 	"/>
	<polygon class="st0" points="16.5,11.6 17.5,11.6 17.8,8.4 17.3,8.8 	"/>
	<polygon class="st0" points="8.8,8.7 7.6,10.2 8.8,10.8 9.9,10.2 	"/>
	<polygon class="st0" points="9.2,10.8 10.8,11 10.1,10.3 	"/>
	<polygon class="st0" points="16.5,3.6 17.3,8.5 18.9,7.2 	"/>
	<polygon class="st0" points="6.6,8.2 6.4,11.4 8.6,8.6 	"/>
	<polygon class="st0" points="6.1,11.4 6.3,8.5 5.1,10.2 	"/>
	<polygon class="st0" points="6.5,11.6 7.6,11.6 7.8,10.6 7.4,10.4 	"/>
	<polygon class="st0" points="10.4,10.3 11.1,11 14.5,10.4 14.9,9.4 	"/>
	<polygon class="st0" points="4.7,10.3 4.8,11.6 6,11.6 4.9,10.3 	"/>
	<polygon class="st0" points="15.3,9.3 15.5,11.6 15.8,11.6 16.2,11.6 17,8.9 	"/>
	<polygon class="st0" points="14.7,10.5 14.8,11.6 15.3,11.6 15.1,9.7 	"/>
</g>
<g>
	<path class="st0" d="M26.3,1.8V1.5h0.6v0.3v1.5l2.2-1.7l0.1-0.1h1L29.5,2l-2,1.5v0.1l2,1.5l0.7,0.5h-1l-0.1-0.1l-2.2-1.7v1.5v0.3
		h-0.6V5.4V1.8z"/>
	<path class="st0" d="M33.5,1.5h0.3v0.6h-0.3h-2.4v1.2h1.6h0.3v0.6h-0.3h-1.6v1.2h2.4h0.3v0.6h-0.3h-3V3.9V3.3V1.5H33.5z"/>
	<path class="st0" d="M37.7,1.5H38v0.6h-0.3h-2.4v1.2H37h0.3v0.6H37h-1.6v1.2h2.4H38v0.6h-0.3h-3V3.9V3.3V1.5H37.7z"/>
	<path class="st0" d="M39,5.7V1.5h2c0.5,0,1.1,0.2,1.4,0.5c0.4,0.3,0.5,1.1,0.5,1.6c0,0.6-0.1,1.3-0.5,1.6c-0.3,0.3-0.9,0.4-1.4,0.5
		H39z M39.6,5.1h1.3c0.4,0,0.8-0.1,1.1-0.3c0.2-0.2,0.3-0.7,0.3-1.2c0-0.5-0.1-1-0.3-1.2c-0.2-0.2-0.6-0.3-1.1-0.3h-1.3V5.1z"/>
	<path class="st0" d="M43.8,1.8V1.5h0.6v0.3v3.6v0.3h-0.6V5.4V1.8z"/>
	<path class="st0" d="M45.3,3.6c0-0.6,0.2-1.4,0.6-1.7c0.4-0.3,1-0.4,1.5-0.4c0.6,0,1.1,0.1,1.5,0.4c0.4,0.3,0.6,1.1,0.6,1.7
		c0,0.6-0.2,1.4-0.6,1.7c-0.4,0.3-1,0.4-1.5,0.4c-0.6,0-1.1-0.1-1.5-0.4C45.5,5,45.3,4.2,45.3,3.6z M45.9,3.6c0,0.5,0.1,1.1,0.4,1.2
		c0.3,0.2,0.6,0.3,1.1,0.3c0.5,0,0.9-0.1,1.1-0.3c0.2-0.2,0.4-0.7,0.4-1.2c0-0.5-0.1-1-0.4-1.2C48.2,2.1,47.9,2,47.4,2
		c-0.5,0-0.9,0.1-1.1,0.3C46,2.6,45.9,3.1,45.9,3.6z"/>
	<path class="st0" d="M26.9,11.4v0.3h-0.6v-0.3V7.5h1.3l1.2,3.6h0.1H29l1.2-3.6h1.3v3.9v0.3h-0.6v-0.3V8.1h-0.3l-1.2,3.6h-0.5h-0.6
		l-1.2-3.6h-0.3V11.4z"/>
	<path class="st0" d="M33.1,10.8L33.1,10.8l-0.3,0.7l-0.1,0.2h-0.6l0.1-0.4l1.4-3.8h1.3l1.4,3.8l0.1,0.4h-0.6l-0.1-0.2l-0.3-0.7h0
		H33.1z M35.3,10.2l-0.8-2.1h-0.5l-0.8,2.1H35.3z"/>
	<path class="st0" d="M37.9,11.4v0.3h-0.6v-0.3V7.5h1.2l1.7,3.6h0.3V7.8V7.5h0.6v0.3v3.9h-1.3l-1.7-3.6h-0.3V11.4z"/>
	<path class="st0" d="M42.7,10.8L42.7,10.8l-0.3,0.7l-0.1,0.2h-0.6l0.1-0.4l1.4-3.8h1.3l1.4,3.8l0.1,0.4h-0.6l-0.1-0.2l-0.3-0.7h0
		H42.7z M45,10.2l-0.8-2.1h-0.5l-0.8,2.1H45z"/>
	<path class="st0" d="M48.8,9.9V9.3h1.5h0.3v0.3v1.6l-0.1,0.1c-0.3,0.2-0.5,0.3-0.8,0.4h0c-0.3,0.1-0.7,0.1-0.9,0.1
		c-0.5,0-1.1-0.2-1.5-0.4c-0.4-0.3-0.6-1.1-0.6-1.7c0-0.6,0.2-1.4,0.6-1.7c0.4-0.3,0.9-0.4,1.5-0.4c0.3,0,0.9,0.1,1.2,0.3
		c0.3,0.2,0.6,0.6,0.6,0.8l-0.6,0.1c0-0.1-0.2-0.3-0.3-0.4v0C49.6,8.1,49.1,8,48.8,8c-0.5,0-0.8,0.1-1.1,0.3
		c-0.2,0.2-0.4,0.7-0.4,1.2c0,0.5,0.1,1.1,0.4,1.2v0c0.3,0.2,0.6,0.3,1.1,0.3c0.2,0,0.5,0,0.7-0.1c0.2-0.1,0.4-0.2,0.5-0.2v-1H48.8z
		"/>
	<path class="st0" d="M54.6,7.5h0.3v0.6h-0.3h-2.4v1.2h1.6h0.3v0.6h-0.3h-1.6v1.2h2.4h0.3v0.6h-0.3h-3V9.9V9.3V7.5H54.6z"/>
	<path class="st0" d="M58.2,9.9l1.1,1.3l0.4,0.5h-0.8l-0.1-0.1l-1.4-1.7h-1v1.5v0.3h-0.6v-0.3V9.9V9.3V7.5h1.8
		c0.5,0,1.2,0.1,1.4,0.3c0.2,0.2,0.3,0.7,0.3,0.9c0,0.3-0.1,0.7-0.3,0.9C58.9,9.8,58.6,9.8,58.2,9.9z M57,9.3h0.6
		c0.5,0,0.9-0.1,1-0.1c0.1-0.1,0.1-0.3,0.1-0.5c0-0.2,0-0.4-0.1-0.5c-0.1-0.1-0.6-0.1-1-0.1h-1.2v1.2H57z"/>
</g>
</svg>
